name C:\Users\u0150099\Documents\master_thesis\3dpredictsim\Results\debug\Fal_s1_mtjc_sc_cspx10_oy_MTc2_MTPm_k1_d01_MTJm_nl_MG_exp_v2_table_d01_PF_Gefen2002_ls146_FDB_ig21.mot
datacolumns 130
datarows 4
range 0.00000000 0.03319018
endheader
time	pelvis_tilt	pelvis_list	pelvis_rotation	pelvis_tx	pelvis_ty	pelvis_tz	hip_flexion_l	hip_adduction_l	hip_rotation_l	hip_flexion_r	hip_adduction_r	hip_rotation_r	knee_angle_l	knee_angle_r	ankle_angle_l	ankle_angle_r	subtalar_angle_l	subtalar_angle_r	mtj_angle_l	mtj_angle_r	mtp_angle_l	mtp_angle_r	lumbar_extension	lumbar_bending	lumbar_rotation	arm_flex_l	arm_add_l	arm_rot_l	arm_flex_r	arm_add_r	arm_rot_r	elbow_flex_l	elbow_flex_r	pro_sup_l	pro_sup_r	glut_med1_l/activation	glut_med2_l/activation	glut_med3_l/activation	glut_min1_l/activation	glut_min2_l/activation	glut_min3_l/activation	semimem_l/activation	semiten_l/activation	bifemlh_l/activation	bifemsh_l/activation	sar_l/activation	add_long_l/activation	add_brev_l/activation	add_mag1_l/activation	add_mag2_l/activation	add_mag3_l/activation	tfl_l/activation	pect_l/activation	grac_l/activation	glut_max1_l/activation	glut_max2_l/activation	glut_max3_l/activation	iliacus_l/activation	psoas_l/activation	quad_fem_l/activation	gem_l/activation	peri_l/activation	rect_fem_l/activation	vas_med_l/activation	vas_int_l/activation	vas_lat_l/activation	med_gas_l/activation	lat_gas_l/activation	soleus_l/activation	tib_post_l/activation	flex_dig_l/activation	flex_hal_l/activation	tib_ant_l/activation	per_brev_l/activation	per_long_l/activation	per_tert_l/activation	ext_dig_l/activation	ext_hal_l/activation	FDB_l/activation	ercspn_l/activation	intobl_l/activation	extobl_l/activation	glut_med1_r/activation	glut_med2_r/activation	glut_med3_r/activation	glut_min1_r/activation	glut_min2_r/activation	glut_min3_r/activation	semimem_r/activation	semiten_r/activation	bifemlh_r/activation	bifemsh_r/activation	sar_r/activation	add_long_r/activation	add_brev_r/activation	add_mag1_r/activation	add_mag2_r/activation	add_mag3_r/activation	tfl_r/activation	pect_r/activation	grac_r/activation	glut_max1_r/activation	glut_max2_r/activation	glut_max3_r/activation	iliacus_r/activation	psoas_r/activation	quad_fem_r/activation	gem_r/activation	peri_r/activation	rect_fem_r/activation	vas_med_r/activation	vas_int_r/activation	vas_lat_r/activation	med_gas_r/activation	lat_gas_r/activation	soleus_r/activation	tib_post_r/activation	flex_dig_r/activation	flex_hal_r/activation	tib_ant_r/activation	per_brev_r/activation	per_long_r/activation	per_tert_r/activation	ext_dig_r/activation	ext_hal_r/activation	FDB_r/activation	ercspn_r/activation	intobl_r/activation	extobl_r/activation	
          0.00000000	         -2.92895498	         -2.36600473	          5.70480203	          0.00000000	          0.90500030	         -0.00455823	        -12.36276030	         -0.49303356	         -4.81881838	         30.11908076	          2.46556759	         -7.56002639	        -20.73727063	        -14.20430802	         -5.41987749	          6.71953411	         -9.14424669	         -4.36062653	          3.22473780	          1.32059860	         34.97480934	         11.60119035	         -4.23355461	          0.82189215	         -1.65540375	          4.61459672	        -13.72737801	         19.19897390	         -3.59573285	        -13.46443770	          8.77733104	         37.72423954	         21.56637402	         86.51662706	         86.51662706	          0.17463009	          0.05000008	          0.05000003	          0.36080240	          0.07164363	          0.05000023	          0.05000356	          0.05000034	          0.05000021	          0.05000023	          0.05000073	          0.15672641	          0.21100991	          0.05000037	          0.05000264	          0.09595746	          0.32864678	          0.05001010	          0.05000037	          0.05000126	          0.05000082	          0.05000066	          0.08307697	          0.41928331	          0.05000003	          0.05000012	          0.05000015	          0.59515450	          0.14811529	          0.14772880	          0.11786279	          0.41238925	          0.65184018	          0.09865981	          0.52264791	          0.84600073	          0.57904440	          0.05000005	          0.48330479	          0.44579595	          0.05000008	          0.05000004	          0.08307155	          0.67100544	          0.05000001	          0.05000003	          0.05000014	          0.05000037	          0.05000088	          0.05000020	          0.05921940	          0.05921902	          0.05000112	          0.23913958	          0.05921971	          0.06313113	          0.07476221	          0.11653403	          0.16071849	          0.09496839	          0.05000083	          0.05000080	          0.24057561	          0.05000040	          0.05493117	          0.11492043	          0.05000034	          0.05000019	          0.30849702	          0.12097470	          0.12096221	          0.33191960	          0.19219139	          0.05000193	          0.05000004	          0.05000003	          0.05000003	          0.05000002	          0.06098585	          0.05976375	          0.05156210	          0.20952098	          0.05921947	          0.05921946	          0.42036359	          0.29925757	          0.37540071	          0.36061231	          0.69559637	          0.67969737	          0.32996083	          0.05000013	          0.13005363	          0.08225453	
          0.01106339	         -2.92924921	         -2.40639648	          6.02842939	          0.01785120	          0.90285001	         -0.00409573	        -13.75547210	         -0.89046299	         -5.19715527	         30.34728074	          2.56681139	         -7.54431972	        -19.88770463	        -16.00564082	         -6.98376543	          5.91952148	         -8.80144928	         -4.63118610	          2.91130329	          1.82241292	         36.80051894	         11.69014661	         -4.09228107	          0.95705255	         -1.78978183	          4.37848625	        -13.69903869	         19.33875780	         -4.50756035	        -13.45036893	          8.17212913	         38.87482528	         21.00450780	         86.51662706	         86.51662706	          0.14744310	          0.05009059	          0.05921941	          0.30463149	          0.06049013	          0.05921889	          0.05000106	          0.05000012	          0.05000035	          0.05000006	          0.05000111	          0.22562149	          0.32260523	          0.30247078	          0.16119829	          0.12664299	          0.27748224	          0.05000472	          0.05000050	          0.05005617	          0.05006935	          0.05921446	          0.07014330	          0.45659940	          0.05921972	          0.05921989	          0.05921989	          0.50249894	          0.13786637	          0.13599547	          0.11431468	          0.37206018	          0.59325624	          0.10393776	          0.44128033	          0.81115709	          0.48889690	          0.22792740	          0.49599548	          0.37639292	          0.34480632	          0.05000003	          0.07013870	          0.56654101	          0.06016485	          0.05921948	          0.05000006	          0.05000003	          0.05000007	          0.05000059	          0.05000009	          0.05000009	          0.05000016	          0.20190952	          0.05000020	          0.05330267	          0.06312298	          0.09839178	          0.13569751	          0.18790143	          0.13998657	          0.06522738	          0.31140527	          0.07013760	          0.07043704	          0.09702930	          0.05000038	          0.15326177	          0.41555026	          0.10214098	          0.10213044	          0.48017227	          0.16227065	          0.08437547	          0.08307178	          0.07013963	          0.07013955	          0.09820407	          0.06099234	          0.06546333	          0.05921959	          0.21805701	          0.05000002	          0.05000004	          0.50051376	          0.32076063	          0.31695746	          0.63201964	          0.72551527	          0.69305625	          0.27859140	          0.05100518	          0.10980645	          0.06944888	
          0.02212679	         -2.92807153	         -2.44731912	          6.32398246	          0.03588885	          0.90067280	         -0.00361316	        -15.01162152	         -1.30288453	         -5.51824795	         30.48561525	          2.62373866	         -7.46162020	        -19.30499177	        -18.17602196	         -8.56905837	          5.29345566	         -8.35901651	         -4.94272144	          2.63044320	          2.13049902	         38.22812866	         11.72399451	         -3.94810331	          1.09872925	         -1.91873401	          4.06954029	        -13.66457827	         19.38555536	         -5.43679797	        -13.45194376	          7.76758036	         40.05105792	         20.49024567	         86.51662706	         86.51662706	          0.12448870	          0.05000010	          0.05000008	          0.25720548	          0.05107314	          0.05000034	          0.05000751	          0.06193979	          0.05000082	          0.05000428	          0.05000228	          0.23024142	          0.37632611	          0.25538137	          0.13610682	          0.10692752	          0.29086986	          0.05921974	          0.05000991	          0.05000239	          0.05000152	          0.05000228	          0.05922323	          0.63471081	          0.05000028	          0.05000054	          0.05000061	          0.42426823	          0.11640292	          0.11482328	          0.09651782	          0.36971129	          0.59491460	          0.11258311	          0.37258031	          0.71808227	          0.41278382	          0.41422067	          0.55140758	          0.31779479	          0.62292303	          0.05000008	          0.05921927	          0.47833997	          0.08873611	          0.05000001	          0.05000010	          0.30780303	          0.33248310	          0.32671720	          0.44599307	          0.41784657	          0.33917764	          0.17047556	          0.13392614	          0.09731265	          0.08347802	          0.08307397	          0.11457170	          0.15864834	          0.11819306	          0.05507269	          0.34697278	          0.05921903	          0.05947168	          0.18457598	          0.18904357	          0.24671433	          0.46184214	          0.08623935	          0.08623045	          0.40541744	          0.13700795	          0.13603075	          0.07013888	          0.05922006	          0.05921999	          0.08291533	          0.05149685	          0.05527178	          0.05000008	          0.23319088	          0.09780950	          0.05921990	          0.54657284	          0.27082360	          0.40031689	          0.63220668	          0.79786020	          0.76863935	          0.58481503	          0.09334934	          0.14850966	          0.05863685	
          0.03319018	         -2.92880147	         -2.47987939	          6.57454485	          0.05371866	          0.89864467	         -0.00308557	        -15.99683946	         -1.72327664	         -5.75292818	         30.66623143	          2.67065902	         -7.38033112	        -19.19239678	        -20.38284931	        -10.08907845	          4.34601849	         -7.76492016	         -5.29286046	          2.40356243	          2.41415577	         38.96948639	         11.81218750	         -3.83514610	          1.24439471	         -2.03672509	          3.75188273	        -13.62584881	         19.38349026	         -6.28243128	        -13.46166395	          7.58081378	         41.21417367	         19.93739191	         86.51662706	         86.51662706	          0.10510791	          0.05921861	          0.06755250	          0.21716290	          0.05001455	          0.05922079	          0.05500654	          0.05921938	          0.05921944	          0.05000103	          0.05000085	          0.44350449	          0.31773860	          0.45857433	          0.11518297	          0.11913275	          0.29885173	          0.05000085	          0.05000313	          0.05013280	          0.05918607	          0.07361914	          0.05000319	          0.75410853	          0.06220202	          0.16383396	          0.07015821	          0.38855573	          0.11195370	          0.11156255	          0.09809157	          0.31785939	          0.52337319	          0.13039366	          0.31457580	          0.60628898	          0.34852036	          0.52854150	          0.46902702	          0.26831942	          0.78298469	          0.05000015	          0.05000002	          0.40387037	          0.13337168	          0.05000001	          0.05000003	          0.39871810	          0.46731587	          0.41992119	          0.37656372	          0.35885248	          0.28639435	          0.14393535	          0.11307617	          0.08216273	          0.07048190	          0.07014077	          0.09673486	          0.21207486	          0.40117256	          0.38309261	          0.43625114	          0.05000028	          0.05021347	          0.15584252	          0.35219498	          0.37229947	          0.60730858	          0.07281332	          0.07280581	          0.34230075	          0.11567819	          0.11485326	          0.05921943	          0.05000067	          0.05000061	          0.17097407	          0.05000001	          0.05000003	          0.05000000	          0.26426557	          0.08258224	          0.05000039	          0.60403022	          0.36478178	          0.34567149	          0.74192472	          0.84385789	          0.86684729	          0.49377107	          0.13507975	          0.12538918	          0.05000002	
